<svg id="Group_534" data-name="Group 534" xmlns="http://www.w3.org/2000/svg" width="24" height="24" viewBox="0 0 24 24">
  <g id="calendar" transform="translate(4.23 4)">
    <path id="Path_407" data-name="Path 407" d="M19.905,4.264H17.377V3H16.113V4.264H11.056V3H9.792V4.264H7.264A1.268,1.268,0,0,0,6,5.528V18.169a1.268,1.268,0,0,0,1.264,1.264H19.905a1.268,1.268,0,0,0,1.264-1.264V5.528A1.268,1.268,0,0,0,19.905,4.264Zm0,13.905H7.264V9.321H19.905Zm0-10.113H7.264V5.528H9.792V6.792h1.264V5.528h5.056V6.792h1.264V5.528h2.528Z" transform="translate(-6 -3)"/>
  </g>
  <rect id="Rectangle_57" data-name="Rectangle 57" width="24" height="24" fill="none"/>
</svg>
